<svg id="Layer_1" data-name="Layer 1" xmlns="http://www.w3.org/2000/svg" viewBox="0 0 879 768"><title>LOGO-N</title><polygon points="250.87 585.55 247.99 581.37 243.24 574.39 65.89 314.9 65.89 462.94 273.5 766.71 310.15 766.71 310.15 672.3 250.87 585.55"/><polygon points="41.74 585.55 -0.47 585.55 -0.47 671.83 64.37 766.71 165.54 766.71 41.74 585.55"/><polygon points="694.04 1 592.86 1 811.18 320.44 811.18 182.15 810.74 172.41 694.04 1"/><polygon points="877 110.75 877 1 801.99 1 877 110.75"/><polygon points="571.82 128.16 571.82 182.15 608.71 182.15 571.82 128.16"/><polygon points="633.29 218.11 633.29 366.15 811.18 626.44 811.18 478.4 633.29 218.11"/><polygon points="66.65 1 -0.47 1 -0.47 50.82 243.24 407.43 243.24 309.99 562.02 767.5 590.49 767.5 66.65 1"/><polygon points="275.78 1 174.6 1 698.45 767.5 799.62 767.5 275.78 1"/></svg>